<svg xmlns="http://www.w3.org/2000/svg" width="24" height="24" fill="none" viewBox="0 0 24 24">
  <g clip-path="url(#a)">
    <path fill="#003D4D" d="M23.781.218a.75.75 0 0 1 .165.81l-8.728 21.82a1.126 1.126 0 0 1-1.994.186l-4.767-7.492-7.492-4.767A1.126 1.126 0 0 1 1.15 8.78L22.97.054a.75.75 0 0 1 .81.165V.218ZM9.954 15.104l4.142 6.507 7.1-17.748-11.242 11.24Zm10.18-12.302-17.747 7.1 6.508 4.14 11.24-11.24Z"/>
  </g>
  <defs>
    <clipPath id="a">
      <path fill="#fff" d="M0 0h24v24H0z"/>
    </clipPath>
  </defs>
</svg>
